<svg width="416" height="239" viewBox="0 0 416 239" fill="none" xmlns="http://www.w3.org/2000/svg">
<path opacity="0.1" d="M90.1418 211.481C102.09 211.481 111.775 201.833 111.775 189.931C111.775 178.03 102.09 168.382 90.1418 168.382C78.1942 168.382 68.5088 178.03 68.5088 189.931C68.5088 201.833 78.1942 211.481 90.1418 211.481Z" fill="#FDD5E9"/>
<path d="M93.6624 208.327C105.61 208.327 115.295 198.68 115.295 186.778C115.295 174.876 105.61 165.228 93.6624 165.228C81.7147 165.228 72.0293 174.876 72.0293 186.778C72.0293 198.68 81.7147 208.327 93.6624 208.327Z" fill="#FFA2D1"/>
<path d="M378.742 162.933H111.084V163.661H378.742V162.933Z" fill="#1B2336"/>
<path d="M249.705 6.92504H154.704V4.97449H111.626V6.92504H16.2318C15.3879 6.92504 14.5523 7.09061 13.7726 7.41231C12.993 7.73401 12.2845 8.20554 11.6879 8.79997C11.0911 9.39439 10.6177 10.1001 10.2948 10.8767C9.97187 11.6534 9.80566 12.4858 9.80566 13.3265V142.914C9.80566 144.611 10.4827 146.24 11.6879 147.44C12.893 148.641 14.5275 149.315 16.2318 149.315H249.705C251.409 149.315 253.044 148.641 254.249 147.44C255.454 146.24 256.132 144.611 256.132 142.914V13.3265C256.132 12.4858 255.965 11.6534 255.642 10.8767C255.319 10.1001 254.846 9.39439 254.249 8.79997C253.652 8.20554 252.944 7.73401 252.164 7.41231C251.385 7.09061 250.549 6.92504 249.705 6.92504Z" fill="black"/>
<path d="M247.514 18.2374H18.4189V146.973H247.514V18.2374Z" fill="#FFA2D1"/>
<path d="M132.772 14.7265C134.069 14.7265 135.122 13.6785 135.122 12.3858C135.122 11.0931 134.069 10.0452 132.772 10.0452C131.474 10.0452 130.422 11.0931 130.422 12.3858C130.422 13.6785 131.474 14.7265 132.772 14.7265Z" fill="#9CE89E" fill-opacity="0.65"/>
<path opacity="0.1" d="M181.836 147.12H18.2578V18.3843L181.836 147.12Z" fill="white"/>
<path d="M54.2655 137.34C66.4275 137.34 76.2868 127.519 76.2868 115.404C76.2868 103.289 66.4275 93.4675 54.2655 93.4675C42.1034 93.4675 32.2441 103.289 32.2441 115.404C32.2441 127.519 42.1034 137.34 54.2655 137.34Z" fill="#FDD5E9"/>
<path d="M207.624 87.666H186.225V92.1202H207.624V87.666Z" fill="#1B2336"/>
<path d="M233.498 52.9856H160.355V54.8946H233.498V52.9856Z" fill="#1B2336"/>
<path d="M233.498 59.0308H160.355V60.9399H233.498V59.0308Z" fill="#1B2336"/>
<path d="M233.498 65.076H160.355V66.9851H233.498V65.076Z" fill="#1B2336"/>
<path d="M233.498 71.1212H160.355V73.0303H233.498V71.1212Z" fill="#1B2336"/>
<path d="M233.498 77.1665H160.355V79.0755H233.498V77.1665Z" fill="#1B2336"/>
<path d="M233.495 20.8492H224.553V29.7582H233.495V20.8492Z" fill="#FDD5E9"/>
<path d="M237.65 33.8943H226.791V23.0764H237.65V33.8943ZM227.262 33.4239H237.178V23.5468H227.262V33.4239Z" fill="#1B2336"/>
<path d="M262.562 144.633H240.205V143.029C240.205 142.987 240.196 142.945 240.18 142.906C240.163 142.868 240.141 142.832 240.111 142.803C240.081 142.774 240.046 142.75 240.007 142.734C239.968 142.718 239.926 142.71 239.884 142.71H232.219C232.177 142.71 232.136 142.718 232.097 142.734C232.058 142.75 232.023 142.774 231.994 142.803C231.964 142.832 231.94 142.868 231.924 142.906C231.908 142.945 231.9 142.987 231.9 143.029V144.633H227.109V143.029C227.109 142.987 227.1 142.945 227.084 142.906C227.069 142.868 227.045 142.832 227.015 142.803C226.986 142.774 226.95 142.75 226.912 142.734C226.872 142.718 226.831 142.71 226.789 142.71H219.124C219.082 142.71 219.04 142.718 219.002 142.734C218.963 142.75 218.928 142.774 218.898 142.803C218.868 142.832 218.845 142.868 218.828 142.906C218.813 142.945 218.804 142.987 218.804 143.029V144.633H214.013V143.029C214.013 142.987 214.005 142.945 213.989 142.906C213.973 142.868 213.949 142.832 213.92 142.803C213.89 142.774 213.855 142.75 213.816 142.734C213.777 142.718 213.735 142.71 213.694 142.71H206.028C205.986 142.71 205.945 142.718 205.906 142.734C205.868 142.75 205.832 142.774 205.802 142.803C205.773 142.832 205.749 142.868 205.733 142.906C205.717 142.945 205.709 142.987 205.709 143.029V144.633H200.918V143.029C200.918 142.987 200.91 142.945 200.893 142.906C200.878 142.868 200.854 142.832 200.824 142.803C200.795 142.774 200.759 142.75 200.721 142.734C200.682 142.718 200.641 142.71 200.599 142.71H192.932C192.89 142.71 192.849 142.718 192.81 142.734C192.772 142.75 192.736 142.774 192.707 142.803C192.677 142.832 192.654 142.868 192.638 142.906C192.621 142.945 192.613 142.987 192.613 143.029V144.633H187.822V143.029C187.822 142.987 187.814 142.945 187.798 142.906C187.782 142.868 187.758 142.832 187.729 142.803C187.699 142.774 187.664 142.75 187.625 142.734C187.587 142.718 187.545 142.71 187.503 142.71H179.837C179.795 142.71 179.753 142.718 179.715 142.734C179.676 142.75 179.641 142.774 179.611 142.803C179.582 142.832 179.558 142.868 179.542 142.906C179.526 142.945 179.518 142.987 179.518 143.029V144.633H174.727V143.029C174.727 142.987 174.719 142.945 174.702 142.906C174.686 142.868 174.663 142.832 174.633 142.803C174.604 142.774 174.568 142.75 174.529 142.734C174.491 142.718 174.449 142.71 174.407 142.71H166.741C166.699 142.71 166.658 142.718 166.619 142.734C166.581 142.75 166.545 142.774 166.516 142.803C166.486 142.832 166.462 142.868 166.447 142.906C166.43 142.945 166.422 142.987 166.422 143.029V144.633H161.631V143.029C161.631 142.987 161.623 142.945 161.607 142.906C161.591 142.868 161.567 142.832 161.537 142.803C161.508 142.774 161.472 142.75 161.434 142.734C161.395 142.718 161.354 142.71 161.312 142.71H101.264C101.222 142.71 101.181 142.718 101.142 142.734C101.103 142.75 101.068 142.774 101.039 142.803C101.009 142.832 100.985 142.868 100.969 142.906C100.953 142.945 100.945 142.987 100.945 143.029V144.633H96.1537V143.029C96.1537 142.987 96.1455 142.945 96.1291 142.906C96.1135 142.868 96.0898 142.832 96.0606 142.803C96.0305 142.774 95.995 142.75 95.9566 142.734C95.9174 142.718 95.8764 142.71 95.8344 142.71H88.1687C88.1268 142.71 88.0852 142.718 88.0465 142.734C88.0077 142.75 87.9725 142.774 87.9429 142.803C87.9132 142.832 87.8897 142.868 87.8736 142.906C87.8576 142.945 87.8493 142.987 87.8493 143.029V144.633H83.0583V143.029C83.0583 142.987 83.05 142.945 83.0339 142.906C83.0179 142.868 82.9943 142.832 82.9647 142.803C82.935 142.774 82.8998 142.75 82.8611 142.734C82.8223 142.718 82.7808 142.71 82.7388 142.71H75.0732C75.0313 142.71 74.9898 142.718 74.951 142.734C74.9122 142.75 74.877 142.774 74.8474 142.803C74.8177 142.832 74.7942 142.868 74.7781 142.906C74.7621 142.945 74.7538 142.987 74.7538 143.029V144.633H69.9628V143.029C69.9628 142.987 69.9545 142.945 69.9384 142.906C69.9224 142.868 69.8988 142.832 69.8692 142.803C69.8395 142.774 69.8043 142.75 69.7656 142.734C69.7268 142.718 69.6853 142.71 69.6433 142.71H61.9777C61.9358 142.71 61.8943 142.718 61.8555 142.734C61.8167 142.75 61.7815 142.774 61.7519 142.803C61.7222 142.832 61.6987 142.868 61.6826 142.906C61.6666 142.945 61.6583 142.987 61.6583 143.029V144.633H56.8673V143.029C56.8673 142.987 56.859 142.945 56.8429 142.906C56.827 142.868 56.8034 142.832 56.7738 142.803C56.744 142.774 56.7088 142.75 56.6702 142.734C56.6314 142.718 56.5898 142.71 56.5479 142.71H48.8822C48.8403 142.71 48.7988 142.718 48.76 142.734C48.7212 142.75 48.686 142.774 48.6564 142.803C48.6267 142.832 48.6032 142.868 48.5871 142.906C48.5711 142.945 48.5628 142.987 48.5628 143.029V144.633H43.7718V143.029C43.7718 142.987 43.7635 142.945 43.7474 142.906C43.7314 142.868 43.7079 142.832 43.6782 142.803C43.6485 142.774 43.6133 142.75 43.5746 142.734C43.5359 142.718 43.4943 142.71 43.4524 142.71H35.7867C35.7448 142.71 35.7033 142.718 35.6645 142.734C35.6257 142.75 35.5905 142.774 35.5609 142.803C35.5312 142.832 35.5077 142.868 35.4916 142.906C35.4756 142.945 35.4673 142.987 35.4673 143.029V144.633H30.6763V143.029C30.6763 142.987 30.668 142.945 30.6519 142.906C30.636 142.868 30.6124 142.832 30.5827 142.803C30.553 142.774 30.5178 142.75 30.4792 142.734C30.4404 142.718 30.3988 142.71 30.3569 142.71H22.6912C22.6493 142.71 22.6078 142.718 22.569 142.734C22.5302 142.75 22.495 142.774 22.4654 142.803C22.4357 142.832 22.4122 142.868 22.3961 142.906C22.3801 142.945 22.3719 142.987 22.3719 143.029V144.633H7.67933C5.64627 144.633 3.69648 145.438 2.25889 146.87C0.821304 148.301 0.0136738 150.244 0.0136719 152.269V155.722C0.0136777 157.747 0.82131 159.689 2.2589 161.122C3.69649 162.554 5.64627 163.358 7.67933 163.358H262.562C264.596 163.358 266.545 162.554 267.983 161.122C269.42 159.689 270.228 157.747 270.228 155.722V152.269C270.228 150.244 269.42 148.301 267.983 146.87C266.545 145.438 264.596 144.633 262.562 144.633Z" fill="black"/>
<path d="M59.5975 129.105C54.1086 129.105 48.7431 127.484 44.1794 124.447C39.6157 121.409 36.0587 117.091 33.9582 112.039C31.8577 106.988 31.3082 101.429 32.3789 96.0673C33.4497 90.7043 36.0929 85.7785 39.974 81.9122C43.8552 78.046 48.8 75.4131 54.1833 74.3464C59.5666 73.2797 65.1466 73.8272 70.2176 75.9196C75.2885 78.0119 79.6227 81.5553 82.6721 86.1015C85.7216 90.6476 87.3492 95.9925 87.3492 101.46C87.3409 108.789 84.4144 115.816 79.2117 120.999C74.009 126.182 66.9551 129.097 59.5975 129.105ZM59.5975 74.5427C54.2531 74.5427 49.0288 76.1214 44.5851 79.0791C40.1415 82.0368 36.6781 86.2408 34.6329 91.1593C32.5877 96.0783 32.0526 101.49 33.0952 106.711C34.1379 111.933 36.7114 116.729 40.4904 120.494C44.2694 124.259 49.0842 126.822 54.3258 127.86C59.5675 128.899 65.0006 128.366 69.938 126.328C74.8756 124.291 79.0958 120.841 82.0649 116.414C85.034 111.988 86.6189 106.784 86.6189 101.46C86.6107 94.3241 83.7612 87.4818 78.6955 82.4356C73.6298 77.3893 66.7615 74.5508 59.5975 74.5427Z" fill="#1B2336"/>
<path d="M307.173 11.9774H214.059V12.7049H307.173V11.9774Z" fill="#FDD5E9"/>
<path d="M415.986 204.037H148.328V204.765H415.986V204.037Z" fill="#FDD5E9"/>
<path d="M163.483 237.502H70.3691V238.23H163.483V237.502Z" fill="#FDD5E9"/>
<path d="M182.227 200.202H172.003V210.387H182.227V200.202Z" fill="#E285B4" fill-opacity="0.65"/>
<path d="M188.434 204.568H176.019V192.2H188.434V204.568ZM176.559 204.03H187.895V192.737H176.559V204.03Z" fill="#FDD5E9"/>
<path d="M300.902 8.14246H290.678V18.3274H300.902V8.14246Z" fill="#FFA2D1"/>
<path d="M307.109 12.5073H294.693V0.139893H307.109V12.5073ZM295.233 11.9697H306.569V0.677611H295.233V11.9697Z" fill="#FDD5E9"/>
<path d="M403.877 200.202H393.652V210.387H403.877V200.202Z" fill="#E285B4" fill-opacity="0.65"/>
<path d="M410.083 204.568H397.668V192.2H410.083V204.568ZM398.208 204.03H409.543V192.737H398.208V204.03Z" fill="#FDD5E9"/>
<path d="M386.044 84.5144H385.176V60.8119C385.176 59.0103 384.82 57.2265 384.128 55.562C383.435 53.8977 382.421 52.3854 381.142 51.1115C379.864 49.8377 378.345 48.8271 376.675 48.1377C375.004 47.4483 373.213 47.0935 371.405 47.0935H320.994C319.186 47.0935 317.394 47.4483 315.724 48.1377C314.052 48.8271 312.535 49.8377 311.256 51.1115C309.977 52.3854 308.962 53.8977 308.271 55.562C307.578 57.2265 307.223 59.0103 307.223 60.8119V190.845C307.223 192.647 307.578 194.431 308.271 196.095C308.962 197.76 309.977 199.273 311.256 200.546C312.535 201.82 314.052 202.83 315.724 203.52C317.394 204.209 319.186 204.564 320.994 204.564H371.405C373.213 204.564 375.004 204.209 376.675 203.52C378.345 202.83 379.864 201.82 381.143 200.546C382.421 199.273 383.435 197.76 384.128 196.095C384.82 194.431 385.176 192.647 385.176 190.845V101.387H386.044V84.5144Z" fill="black"/>
<path d="M382.244 61.6181V191.462C382.245 194.18 381.161 196.786 379.234 198.707C377.305 200.629 374.689 201.708 371.961 201.709H321.307C318.58 201.708 315.964 200.629 314.035 198.707C312.107 196.786 311.024 194.18 311.025 191.462V61.6181C311.025 58.9015 312.109 56.2963 314.036 54.3754C315.965 52.4545 318.58 51.3752 321.307 51.3749H327.453C327.15 52.1139 327.035 52.9156 327.117 53.7095C327.199 54.5034 327.475 55.265 327.922 55.9273C328.369 56.5897 328.973 57.1323 329.68 57.5075C330.387 57.8827 331.176 58.0789 331.977 58.0788H360.857C361.658 58.0789 362.447 57.8827 363.154 57.5075C363.861 57.1323 364.465 56.5897 364.912 55.9273C365.359 55.265 365.635 54.5034 365.717 53.7095C365.799 52.9156 365.683 52.1139 365.381 51.3749H371.961C374.689 51.3752 377.303 52.4545 379.232 54.3754C381.16 56.2963 382.244 58.9015 382.244 61.6181Z" fill="#FFA2D1"/>
<path d="M354.179 136.99H339.089V141.444H354.179V136.99Z" fill="#1B2336"/>
<path d="M372.419 102.308H320.845V104.217H372.419V102.308Z" fill="#1B2336"/>
<path d="M372.419 108.353H320.845V110.262H372.419V108.353Z" fill="#1B2336"/>
<path d="M372.419 114.398H320.845V116.308H372.419V114.398Z" fill="#1B2336"/>
<path d="M372.419 120.444H320.845V122.353H372.419V120.444Z" fill="#1B2336"/>
<path d="M372.419 126.489H320.845V128.398H372.419V126.489Z" fill="#1B2336"/>
<path d="M348.435 76.9563H339.493V85.8652H348.435V76.9563Z" fill="#FDD5E9"/>
<path d="M342.916 79.1843V90.0023H353.776V79.1843H342.916ZM353.305 89.533H343.388V79.6536H353.305V89.533Z" fill="#1B2336"/>
<path opacity="0.1" d="M382.244 177.596V191.463C382.245 194.18 381.161 196.786 379.234 198.708C377.305 200.629 374.689 201.709 371.961 201.71H321.307C318.58 201.709 315.964 200.629 314.035 198.708C312.107 196.786 311.024 194.18 311.025 191.463V121.547L353.7 155.132L354.43 155.707L362.368 161.952L363.11 162.537L382.244 177.596Z" fill="white"/>
<path d="M342.251 197.502C351.098 197.502 358.27 190.357 358.27 181.545C358.27 172.732 351.098 165.588 342.251 165.588C333.404 165.588 326.232 172.732 326.232 181.545C326.232 190.357 333.404 197.502 342.251 197.502Z" fill="#FDD5E9"/>
<path d="M116.925 238.23C110.642 238.23 104.5 236.374 99.2757 232.896C94.0515 229.419 89.9799 224.476 87.5755 218.694C85.171 212.911 84.5419 206.548 85.7676 200.41C86.9935 194.271 90.0191 188.632 94.462 184.206C98.9045 179.78 104.566 176.766 110.728 175.546C116.891 174.324 123.278 174.951 129.083 177.346C134.888 179.742 139.85 183.798 143.34 189.002C146.831 194.206 148.694 200.324 148.694 206.584C148.684 214.974 145.335 223.018 139.379 228.951C133.423 234.883 125.348 238.221 116.925 238.23ZM116.925 175.665C110.787 175.665 104.786 177.479 99.6817 180.876C94.5778 184.273 90.5994 189.102 88.2502 194.752C85.901 200.401 85.2864 206.618 86.4839 212.616C87.6816 218.613 90.6376 224.122 94.9783 228.446C99.3195 232.77 104.849 235.715 110.87 236.908C116.892 238.101 123.132 237.489 128.803 235.148C134.475 232.809 139.322 228.846 142.733 223.761C146.144 218.676 147.964 212.699 147.964 206.584C147.955 198.386 144.682 190.527 138.863 184.731C133.043 178.935 125.155 175.674 116.925 175.665Z" fill="#FDD5E9"/>
<path d="M346.972 193.852C343 193.852 339.117 192.679 335.814 190.481C332.511 188.282 329.937 185.158 328.417 181.502C326.898 177.846 326.5 173.823 327.274 169.943C328.05 166.062 329.962 162.497 332.77 159.699C335.579 156.902 339.158 154.996 343.054 154.224C346.95 153.452 350.987 153.848 354.657 155.363C358.327 156.877 361.464 159.441 363.671 162.731C365.878 166.021 367.055 169.889 367.055 173.846C367.05 179.15 364.932 184.235 361.167 187.986C357.401 191.737 352.297 193.846 346.972 193.852ZM346.972 154.567C343.144 154.567 339.402 155.697 336.22 157.816C333.038 159.935 330.556 162.945 329.092 166.468C327.627 169.991 327.244 173.867 327.99 177.607C328.737 181.346 330.581 184.782 333.288 187.477C335.994 190.174 339.442 192.01 343.196 192.754C346.951 193.498 350.842 193.116 354.378 191.657C357.915 190.198 360.937 187.727 363.063 184.557C365.19 181.386 366.326 177.658 366.326 173.846C366.319 168.734 364.279 163.834 360.651 160.22C357.022 156.606 352.103 154.573 346.972 154.567Z" fill="#1B2336"/>
</svg>
