<svg width="416" height="239" viewBox="0 0 416 239" fill="none" xmlns="http://www.w3.org/2000/svg">
<g clip-path="url(#clip0_27_370)">
<g clip-path="url(#clip1_27_370)">
<mask id="mask0_27_370" style="mask-type:luminance" maskUnits="userSpaceOnUse" x="0" y="0" width="416" height="239">
<path d="M415.987 0.139893H0.0131836V238.23H415.987V0.139893Z" fill="white"/>
</mask>
<g mask="url(#mask0_27_370)">
<path opacity="0.1" d="M90.1413 211.481C102.089 211.481 111.774 201.833 111.774 189.931C111.774 178.03 102.089 168.382 90.1413 168.382C78.1937 168.382 68.5083 178.03 68.5083 189.931C68.5083 201.833 78.1937 211.481 90.1413 211.481Z" fill="black"/>
<path d="M93.6619 208.327C105.609 208.327 115.294 198.68 115.294 186.778C115.294 174.876 105.609 165.228 93.6619 165.228C81.7142 165.228 72.0288 174.876 72.0288 186.778C72.0288 198.68 81.7142 208.327 93.6619 208.327Z" fill="#FFA2D1"/>
<path d="M378.741 162.933H111.083V163.661H378.741V162.933Z" fill="#1B2336"/>
<path d="M249.705 6.92504H154.703V4.97449H111.625V6.92504H16.2313C15.3874 6.92504 14.5518 7.09061 13.7722 7.41231C12.9925 7.73401 12.284 8.20554 11.6874 8.79997C11.0906 9.39439 10.6172 10.1001 10.2943 10.8767C9.97138 11.6534 9.80518 12.4858 9.80518 13.3265V142.914C9.80518 144.611 10.4822 146.24 11.6874 147.44C12.8925 148.641 14.527 149.315 16.2313 149.315H249.705C251.409 149.315 253.043 148.641 254.248 147.44C255.453 146.24 256.131 144.611 256.131 142.914V13.3265C256.131 12.4858 255.964 11.6534 255.641 10.8767C255.318 10.1001 254.845 9.39439 254.248 8.79997C253.652 8.20554 252.944 7.73401 252.164 7.41231C251.384 7.09061 250.548 6.92504 249.705 6.92504Z" fill="#1B2336"/>
<path d="M247.513 18.2374H18.418V146.973H247.513V18.2374Z" fill="#FFA2D1"/>
<path d="M132.772 14.7265C134.069 14.7265 135.122 13.6785 135.122 12.3858C135.122 11.0931 134.069 10.0452 132.772 10.0452C131.474 10.0452 130.422 11.0931 130.422 12.3858C130.422 13.6785 131.474 14.7265 132.772 14.7265Z" fill="#9CE89E" fill-opacity="0.65"/>
<path opacity="0.1" d="M181.836 147.12H18.2578V18.3843L181.836 147.12Z" fill="black"/>
<path d="M54.265 137.34C66.427 137.34 76.2863 127.519 76.2863 115.404C76.2863 103.289 66.427 93.4675 54.265 93.4675C42.103 93.4675 32.2437 103.289 32.2437 115.404C32.2437 127.519 42.103 137.34 54.265 137.34Z" fill="#FDD5E9"/>
<path d="M207.624 87.666H186.224V92.1202H207.624V87.666Z" fill="#1B2336"/>
<path d="M233.497 52.9856H160.354V54.8946H233.497V52.9856Z" fill="#1B2336"/>
<path d="M233.497 59.0308H160.354V60.9399H233.497V59.0308Z" fill="#1B2336"/>
<path d="M233.497 65.076H160.354V66.9851H233.497V65.076Z" fill="#1B2336"/>
<path d="M233.497 71.1212H160.354V73.0303H233.497V71.1212Z" fill="#1B2336"/>
<path d="M233.497 77.1665H160.354V79.0755H233.497V77.1665Z" fill="#1B2336"/>
<path d="M233.495 20.8492H224.552V29.7582H233.495V20.8492Z" fill="#FDD5E9"/>
<path d="M237.649 33.8943H226.79V23.0764H237.649V33.8943ZM227.262 33.4239H237.177V23.5468H227.262V33.4239Z" fill="#1B2336"/>
<path d="M262.562 144.633H240.204V143.029C240.204 142.987 240.196 142.945 240.179 142.906C240.163 142.868 240.14 142.832 240.11 142.803C240.081 142.774 240.045 142.75 240.006 142.734C239.968 142.718 239.926 142.71 239.884 142.71H232.218C232.176 142.71 232.135 142.718 232.096 142.734C232.058 142.75 232.022 142.774 231.993 142.803C231.963 142.832 231.939 142.868 231.924 142.906C231.907 142.945 231.899 142.987 231.899 143.029V144.633H227.108V143.029C227.108 142.987 227.1 142.945 227.084 142.906C227.068 142.868 227.044 142.832 227.014 142.803C226.985 142.774 226.949 142.75 226.911 142.734C226.872 142.718 226.831 142.71 226.789 142.71H219.123C219.082 142.71 219.04 142.718 219.001 142.734C218.962 142.75 218.927 142.774 218.897 142.803C218.867 142.832 218.844 142.868 218.828 142.906C218.812 142.945 218.803 142.987 218.803 143.029V144.633H214.012V143.029C214.012 142.987 214.004 142.945 213.989 142.906C213.972 142.868 213.948 142.832 213.919 142.803C213.889 142.774 213.854 142.75 213.815 142.734C213.777 142.718 213.735 142.71 213.693 142.71H206.028C205.986 142.71 205.945 142.718 205.905 142.734C205.867 142.75 205.831 142.774 205.801 142.803C205.772 142.832 205.748 142.868 205.733 142.906C205.717 142.945 205.708 142.987 205.708 143.029V144.633H200.917V143.029C200.917 142.987 200.909 142.945 200.893 142.906C200.877 142.868 200.854 142.832 200.823 142.803C200.794 142.774 200.759 142.75 200.72 142.734C200.681 142.718 200.64 142.71 200.598 142.71H192.932C192.89 142.71 192.849 142.718 192.81 142.734C192.771 142.75 192.736 142.774 192.706 142.803C192.676 142.832 192.654 142.868 192.637 142.906C192.621 142.945 192.612 142.987 192.612 143.029V144.633H187.822V143.029C187.822 142.987 187.813 142.945 187.798 142.906C187.781 142.868 187.758 142.832 187.728 142.803C187.698 142.774 187.664 142.75 187.624 142.734C187.586 142.718 187.544 142.71 187.502 142.71H179.837C179.795 142.71 179.753 142.718 179.715 142.734C179.675 142.75 179.641 142.774 179.611 142.803C179.581 142.832 179.558 142.868 179.541 142.906C179.526 142.945 179.518 142.987 179.518 143.029V144.633H174.727V143.029C174.727 142.987 174.718 142.945 174.702 142.906C174.685 142.868 174.663 142.832 174.633 142.803C174.603 142.774 174.568 142.75 174.529 142.734C174.49 142.718 174.448 142.71 174.406 142.71H166.741C166.699 142.71 166.658 142.718 166.619 142.734C166.58 142.75 166.545 142.774 166.516 142.803C166.486 142.832 166.462 142.868 166.446 142.906C166.43 142.945 166.422 142.987 166.422 143.029V144.633H161.631V143.029C161.631 142.987 161.622 142.945 161.606 142.906C161.591 142.868 161.567 142.832 161.537 142.803C161.508 142.774 161.472 142.75 161.434 142.734C161.394 142.718 161.353 142.71 161.311 142.71H101.263C101.221 142.71 101.18 142.718 101.141 142.734C101.103 142.75 101.067 142.774 101.038 142.803C101.008 142.832 100.984 142.868 100.969 142.906C100.952 142.945 100.944 142.987 100.944 143.029V144.633H96.1532V143.029C96.1532 142.987 96.145 142.945 96.1286 142.906C96.1131 142.868 96.0893 142.832 96.0602 142.803C96.03 142.774 95.9945 142.75 95.9562 142.734C95.9169 142.718 95.8759 142.71 95.8339 142.71H88.1682C88.1263 142.71 88.0847 142.718 88.046 142.734C88.0072 142.75 87.972 142.774 87.9424 142.803C87.9127 142.832 87.8892 142.868 87.8731 142.906C87.8571 142.945 87.8488 142.987 87.8488 143.029V144.633H83.0578V143.029C83.0578 142.987 83.0495 142.945 83.0334 142.906C83.0174 142.868 82.9938 142.832 82.9642 142.803C82.9345 142.774 82.8993 142.75 82.8606 142.734C82.8218 142.718 82.7803 142.71 82.7383 142.71H75.0727C75.0308 142.71 74.9893 142.718 74.9505 142.734C74.9117 142.75 74.8765 142.774 74.8469 142.803C74.8172 142.832 74.7937 142.868 74.7776 142.906C74.7616 142.945 74.7533 142.987 74.7533 143.029V144.633H69.9623V143.029C69.9623 142.987 69.954 142.945 69.9379 142.906C69.9219 142.868 69.8983 142.832 69.8687 142.803C69.8391 142.774 69.8038 142.75 69.7651 142.734C69.7263 142.718 69.6848 142.71 69.6428 142.71H61.9772C61.9353 142.71 61.8938 142.718 61.855 142.734C61.8162 142.75 61.781 142.774 61.7514 142.803C61.7217 142.832 61.6982 142.868 61.6821 142.906C61.6661 142.945 61.6578 142.987 61.6578 143.029V144.633H56.8668V143.029C56.8668 142.987 56.8585 142.945 56.8424 142.906C56.8265 142.868 56.8029 142.832 56.7733 142.803C56.7436 142.774 56.7083 142.75 56.6697 142.734C56.6309 142.718 56.5893 142.71 56.5474 142.71H48.8817C48.8398 142.71 48.7983 142.718 48.7595 142.734C48.7207 142.75 48.6855 142.774 48.6559 142.803C48.6262 142.832 48.6027 142.868 48.5866 142.906C48.5706 142.945 48.5623 142.987 48.5623 143.029V144.633H43.7713V143.029C43.7713 142.987 43.763 142.945 43.7469 142.906C43.7309 142.868 43.7074 142.832 43.6777 142.803C43.6481 142.774 43.6128 142.75 43.5741 142.734C43.5354 142.718 43.4938 142.71 43.4519 142.71H35.7863C35.7443 142.71 35.7028 142.718 35.664 142.734C35.6252 142.75 35.59 142.774 35.5604 142.803C35.5307 142.832 35.5072 142.868 35.4911 142.906C35.4751 142.945 35.4668 142.987 35.4668 143.029V144.633H30.6758V143.029C30.6758 142.987 30.6675 142.945 30.6514 142.906C30.6355 142.868 30.6119 142.832 30.5822 142.803C30.5526 142.774 30.5173 142.75 30.4787 142.734C30.4399 142.718 30.3983 142.71 30.3564 142.71H22.6908C22.6488 142.71 22.6073 142.718 22.5685 142.734C22.5297 142.75 22.4945 142.774 22.4649 142.803C22.4352 142.832 22.4117 142.868 22.3956 142.906C22.3796 142.945 22.3714 142.987 22.3714 143.029V144.633H7.67884C5.64578 144.633 3.69599 145.438 2.2584 146.87C0.820816 148.301 0.0131855 150.244 0.0131836 152.269V155.722C0.0131894 157.747 0.820821 159.689 2.25841 161.122C3.696 162.554 5.64578 163.358 7.67884 163.358H262.562C264.595 163.358 266.544 162.554 267.982 161.122C269.42 159.689 270.227 157.747 270.227 155.722V152.269C270.227 150.244 269.42 148.301 267.982 146.87C266.544 145.438 264.595 144.633 262.562 144.633Z" fill="#1B2336"/>
<path d="M59.5965 129.105C54.1076 129.105 48.7421 127.484 44.1784 124.447C39.6147 121.409 36.0577 117.091 33.9572 112.039C31.8567 106.988 31.3072 101.429 32.378 96.0673C33.4487 90.7043 36.0919 85.7785 39.973 81.9122C43.8542 78.046 48.7991 75.4131 54.1824 74.3464C59.5657 73.2797 65.1456 73.8272 70.2166 75.9196C75.2875 78.0119 79.6218 81.5553 82.6712 86.1015C85.7206 90.6476 87.3482 95.9925 87.3482 101.46C87.3399 108.789 84.4134 115.816 79.2107 120.999C74.008 126.182 66.9541 129.097 59.5965 129.105ZM59.5965 74.5427C54.2521 74.5427 49.0278 76.1214 44.5841 79.0791C40.1405 82.0368 36.6771 86.2408 34.6319 91.1593C32.5867 96.0783 32.0516 101.49 33.0942 106.711C34.1369 111.933 36.7104 116.729 40.4894 120.494C44.2684 124.259 49.0832 126.822 54.3248 127.86C59.5665 128.899 64.9996 128.366 69.9371 126.328C74.8747 124.291 79.0948 120.841 82.064 116.414C85.0331 111.988 86.6179 106.784 86.6179 101.46C86.6098 94.3241 83.7603 87.4818 78.6945 82.4356C73.6288 77.3893 66.7605 74.5508 59.5965 74.5427Z" fill="#1B2336"/>
<path d="M307.172 11.9774H214.058V12.7049H307.172V11.9774Z" fill="#1B2336"/>
<path d="M415.986 204.037H148.328V204.765H415.986V204.037Z" fill="#1B2336"/>
<path d="M163.482 237.502H70.3682V238.23H163.482V237.502Z" fill="#1B2336"/>
<path d="M182.227 200.202H172.002V210.387H182.227V200.202Z" fill="#E285B4" fill-opacity="0.65"/>
<path d="M188.433 204.568H176.018V192.2H188.433V204.568ZM176.558 204.03H187.894V192.737H176.558V204.03Z" fill="#1B2336"/>
<path d="M300.901 8.14246H290.677V18.3274H300.901V8.14246Z" fill="#FFA2D1"/>
<path d="M307.108 12.5073H294.693V0.139893H307.108V12.5073ZM295.233 11.9697H306.568V0.677611H295.233V11.9697Z" fill="#1B2336"/>
<path d="M403.876 200.202H393.652V210.387H403.876V200.202Z" fill="#E285B4" fill-opacity="0.65"/>
<path d="M410.083 204.568H397.667V192.2H410.083V204.568ZM398.208 204.03H409.543V192.737H398.208V204.03Z" fill="#1B2336"/>
<path d="M386.044 84.5144H385.175V60.8119C385.175 59.0103 384.819 57.2265 384.127 55.562C383.435 53.8977 382.42 52.3854 381.141 51.1115C379.863 49.8377 378.344 48.8271 376.674 48.1377C375.003 47.4483 373.212 47.0935 371.404 47.0935H320.993C319.185 47.0935 317.393 47.4483 315.723 48.1377C314.052 48.8271 312.534 49.8377 311.255 51.1115C309.976 52.3854 308.962 53.8977 308.27 55.562C307.578 57.2265 307.222 59.0103 307.222 60.8119V190.845C307.222 192.647 307.578 194.431 308.27 196.095C308.962 197.76 309.976 199.273 311.255 200.546C312.534 201.82 314.052 202.83 315.723 203.52C317.393 204.209 319.185 204.564 320.993 204.564H371.404C373.212 204.564 375.003 204.209 376.674 203.52C378.344 202.83 379.863 201.82 381.142 200.546C382.42 199.273 383.435 197.76 384.127 196.095C384.819 194.431 385.175 192.647 385.175 190.845V101.387H386.044V84.5144Z" fill="#1B2336"/>
<path d="M382.243 61.6181V191.462C382.244 194.18 381.161 196.786 379.233 198.707C377.305 200.629 374.688 201.708 371.961 201.709H321.307C318.579 201.708 315.963 200.629 314.035 198.707C312.106 196.786 311.024 194.18 311.024 191.462V61.6181C311.024 58.9015 312.108 56.2963 314.036 54.3754C315.964 52.4545 318.579 51.3752 321.307 51.3749H327.453C327.15 52.1139 327.035 52.9156 327.116 53.7095C327.198 54.5034 327.475 55.265 327.922 55.9273C328.369 56.5897 328.972 57.1323 329.679 57.5075C330.386 57.8827 331.175 58.0789 331.976 58.0788H360.856C361.657 58.0789 362.446 57.8827 363.153 57.5075C363.86 57.1323 364.464 56.5897 364.911 55.9273C365.358 55.265 365.635 54.5034 365.717 53.7095C365.799 52.9156 365.683 52.1139 365.381 51.3749H371.961C374.688 51.3752 377.303 52.4545 379.231 54.3754C381.16 56.2963 382.243 58.9015 382.243 61.6181Z" fill="#FFA2D1"/>
<path d="M354.179 136.99H339.089V141.444H354.179V136.99Z" fill="#1B2336"/>
<path d="M372.419 102.308H320.845V104.217H372.419V102.308Z" fill="#1B2336"/>
<path d="M372.419 108.353H320.845V110.262H372.419V108.353Z" fill="#1B2336"/>
<path d="M372.419 114.398H320.845V116.308H372.419V114.398Z" fill="#1B2336"/>
<path d="M372.419 120.444H320.845V122.353H372.419V120.444Z" fill="#1B2336"/>
<path d="M372.419 126.489H320.845V128.398H372.419V126.489Z" fill="#1B2336"/>
<path d="M348.435 76.9563H339.492V85.8652H348.435V76.9563Z" fill="#FDD5E9"/>
<path d="M342.916 79.1843V90.0023H353.776V79.1843H342.916ZM353.305 89.533H343.387V79.6536H353.305V89.533Z" fill="#1B2336"/>
<path opacity="0.1" d="M382.243 177.596V191.463C382.244 194.18 381.161 196.786 379.233 198.708C377.305 200.629 374.688 201.709 371.961 201.71H321.307C318.579 201.709 315.963 200.629 314.035 198.708C312.106 196.786 311.024 194.18 311.024 191.463V121.547L353.7 155.132L354.43 155.707L362.368 161.952L363.11 162.537L382.243 177.596Z" fill="black"/>
<path d="M342.251 197.502C351.097 197.502 358.269 190.357 358.269 181.545C358.269 172.732 351.097 165.588 342.251 165.588C333.404 165.588 326.232 172.732 326.232 181.545C326.232 190.357 333.404 197.502 342.251 197.502Z" fill="#FDD5E9"/>
<path d="M116.924 238.23C110.641 238.23 104.499 236.374 99.2748 232.896C94.0505 229.419 89.979 224.476 87.5745 218.694C85.17 212.911 84.5409 206.548 85.7667 200.41C86.9925 194.271 90.0181 188.632 94.461 184.206C98.9035 179.78 104.565 176.766 110.727 175.546C116.89 174.324 123.277 174.951 129.082 177.346C134.887 179.742 139.849 183.798 143.339 189.002C146.83 194.206 148.693 200.324 148.693 206.584C148.683 214.974 145.334 223.018 139.378 228.951C133.422 234.883 125.347 238.221 116.924 238.23ZM116.924 175.665C110.786 175.665 104.785 177.479 99.6807 180.876C94.5768 184.273 90.5984 189.102 88.2492 194.752C85.9 200.401 85.2854 206.618 86.4829 212.616C87.6806 218.613 90.6367 224.122 94.9773 228.446C99.3186 232.77 104.848 235.715 110.869 236.908C116.891 238.101 123.131 237.489 128.802 235.148C134.474 232.809 139.321 228.846 142.732 223.761C146.143 218.676 147.963 212.699 147.963 206.584C147.954 198.386 144.681 190.527 138.862 184.731C133.042 178.935 125.154 175.674 116.924 175.665Z" fill="#1B2336"/>
<path d="M346.971 193.852C343 193.852 339.116 192.679 335.814 190.481C332.511 188.282 329.937 185.158 328.417 181.502C326.897 177.846 326.499 173.823 327.274 169.943C328.049 166.062 329.961 162.497 332.77 159.699C335.579 156.902 339.157 154.996 343.053 154.224C346.95 153.452 350.987 153.848 354.657 155.363C358.327 156.877 361.464 159.441 363.671 162.731C365.877 166.021 367.055 169.889 367.055 173.846C367.049 179.15 364.931 184.235 361.166 187.986C357.401 191.737 352.296 193.846 346.971 193.852ZM346.971 154.567C343.144 154.567 339.402 155.697 336.219 157.816C333.037 159.935 330.556 162.945 329.092 166.468C327.627 169.991 327.244 173.867 327.99 177.607C328.737 181.346 330.581 184.782 333.287 187.477C335.994 190.174 339.442 192.01 343.196 192.754C346.95 193.498 350.841 193.116 354.378 191.657C357.914 190.198 360.937 187.727 363.063 184.557C365.189 181.386 366.325 177.658 366.325 173.846C366.319 168.734 364.278 163.834 360.65 160.22C357.021 156.606 352.103 154.573 346.971 154.567Z" fill="#1B2336"/>
</g>
</g>
</g>
<defs>
<clipPath id="clip0_27_370">
<rect width="416" height="238.09" fill="white" transform="translate(0 0.139893)"/>
</clipPath>
<clipPath id="clip1_27_370">
<rect width="416" height="238.09" fill="white" transform="translate(0 0.139893)"/>
</clipPath>
</defs>
</svg>
